PathFileType	4	(X/Y/Z)	14_coords_data.trc
DataRate	CameraRate	NumFrames	NumMarkers	Units	OrigDataRate	OrigDataStartFrame	OrigNumFrames
30.0	30.0	6	21	m	30.0	59	68
Frame#	Time	THUMB_TIP	THUMB_IP	THUMB_MCP	THUMB_CMC	INDEX_TIP	INDEX_DIP	INDEX_PIP	INDEX_MCP	MIDDLE_TIP	MIDDLE_DIP	MIDDLE_PIP	MIDDLE_MCP	RING_TIP	RING_DIP	RING_PIP	RING_MCP	PINKY_TIP	PINKY_DIP	PINKY_PIP	PINKY_MCP	WRIST
X1	Y1	Z1	X2	Y2	Z2	X3	Y3	Z3	X4	Y4	Z4	X5	Y5	Z5	X6	Y6	Z6	X7	Y7	Z7	X8	Y8	Z8	X9	Y9	Z9	X10	Y10	Z10	X11	Y11	Z11	X12	Y12	Z12	X13	Y13	Z13	X14	Y14	Z14	X15	Y15	Z15	X16	Y16	Z16	X17	Y17	Z17	X18	Y18	Z18	X19	Y19	Z19	X20	Y20	Z20	X21	Y21	Z21
58	1.9333333333333333	-0.011100299835205078	-0.05236130142211914	0.9435809936523437	-0.013381099700927735	-0.032055500030517575	0.9603770141601562	-0.02417740058898926	-0.01748390007019043	0.9834340209960938	-0.02835370063781738	0.012493399620056153	0.9994860229492187	0.01189840030670166	-0.008435970306396484	0.8732880249023437	-0.003565160036087036	-0.0068720998764038085	0.8888610229492188	-0.017270099639892577	-0.004977129936218262	0.9066300048828125	-0.02880820083618164	0.000575061976909637	0.9411409912109375	0.014598899841308594	0.027074899673461914	0.85675	0.0007819290161132811	0.026341800689697267	0.8762230224609375	-0.015039799690246582	0.02501729965209961	0.8996530151367188	-0.029415300369262695	0.023893299102783202	0.9362319946289063	0.025249799728393554	0.04390610122680664	0.875677978515625	0.009249179840087891	0.045433799743652345	0.8905469970703125	-0.008047439575195313	0.04618600082397461	0.9093309936523437	-0.023294300079345704	0.043385501861572265	0.940323974609375	0.03461029815673828	0.07402829742431641	0.9187650146484375	0.018277000427246094	0.07143920135498047	0.9272440185546875	0.003269439935684204	0.06777909851074218	0.9357410278320313	-0.016392900466918946	0.0598922004699707	0.9510499877929688	-0.05003260040283203	0.038598800659179686	1.0113699951171875
59	1.9666666666666666	-0.011573300361633301	-0.05128409957885742	0.9424420166015625	-0.013854299545288086	-0.031201200485229494	0.9593179931640625	-0.02421739959716797	-0.016964899063110352	0.9826279907226563	-0.02822400093078613	0.012798000335693359	0.9993099975585937	0.012545999526977538	-0.007612339973449707	0.87381201171875	-0.003273590087890625	-0.006097770214080809	0.8889530029296875	-0.017368999481201172	-0.0041588997840881345	0.9067349853515625	-0.029082300186157227	0.0009994660019874571	0.9407000122070313	0.015070500373840333	0.027512899398803713	0.8569290161132812	0.000986460983753204	0.026767099380493164	0.87631201171875	-0.014915499687194824	0.025463499069213868	0.8995499877929688	-0.029685400009155274	0.0243799991607666	0.9362100219726562	0.025010700225830077	0.04355849838256836	0.8754089965820312	0.00911359977722168	0.04523509979248047	0.8904169921875	-0.008045570373535156	0.046150901794433596	0.90927197265625	-0.023481399536132812	0.043794700622558594	0.940427001953125	0.034079200744628904	0.0738832015991211	0.917906982421875	0.017787399291992186	0.0715082015991211	0.9264840087890625	0.00285575008392334	0.0680103988647461	0.9351820068359376	-0.016611099243164062	0.06035689926147461	0.9509669799804688	-0.04978730010986328	0.03879499816894531	1.0113800048828125
60	2.0	-0.011923700332641602	-0.05001169967651367	0.9409110107421875	-0.014005800247192383	-0.030155500411987304	0.9579630126953125	-0.024163000106811522	-0.01642110061645508	0.98202197265625	-0.028000499725341795	0.013075599670410156	0.9989530029296875	0.013049799919128418	-0.006637539863586426	0.874073974609375	-0.0030294198989868158	-0.005255449771881103	0.8888839721679688	-0.017416400909423826	-0.003540760040283203	0.9062789916992188	-0.029332399368286133	0.0013488500118255611	0.94043798828125	0.015595800399780273	0.028055599212646484	0.8571119995117188	0.001275599956512451	0.02723069953918457	0.8764459838867188	-0.01490149974822998	0.025892499923706055	0.8995050048828125	-0.030035400390625	0.024742900848388674	0.9360250244140625	0.024556699752807616	0.04383349990844727	0.8750770263671875	0.008783840179443359	0.04546179962158203	0.890093017578125	-0.008374640464782715	0.04638309860229492	0.9090180053710938	-0.023887399673461915	0.04407630157470703	0.9400339965820312	0.03338710021972656	0.07370359802246093	0.9171320190429687	0.01714579963684082	0.07155159759521484	0.92577001953125	0.0022133100032806392	0.06821720123291015	0.9345540161132813	-0.017039400100708008	0.06071239852905273	0.950552978515625	-0.04972359848022461	0.038884498596191405	1.01122998046875
61	2.033333333333333	-0.013237199783325194	-0.04867950057983399	0.9388519897460937	-0.014639399528503417	-0.029149099349975584	0.956385009765625	-0.024172500610351564	-0.01589150047302246	0.9809760131835937	-0.0277549991607666	0.013286800384521484	0.9984860229492187	0.012864700317382812	-0.00550013017654419	0.8737979736328125	-0.003410079956054687	-0.00428794002532959	0.8884019775390625	-0.017837099075317383	-0.0027126600742340087	0.9058280029296875	-0.029750499725341797	0.001858369946479797	0.9399329833984374	0.015082599639892579	0.02884269905090332	0.8567260131835938	0.0007776880264282221	0.027944700241088867	0.8759299926757812	-0.015519000053405762	0.026547599792480468	0.8989929809570313	-0.03044729995727539	0.02524300003051758	0.9356400146484375	0.023501800537109374	0.04452379989624024	0.8744290161132813	0.0077338099479675295	0.04617020034790039	0.8895479736328125	-0.00940347957611084	0.04702460098266602	0.9085189819335937	-0.024430599212646485	0.044558998107910155	0.9399509887695312	0.03290060043334961	0.0734281997680664	0.9166090087890625	0.016539100646972657	0.07150440216064453	0.9251859741210937	0.001523190021514892	0.06844249725341797	0.9339229736328125	-0.017544700622558595	0.06116590118408203	0.9503070068359375	-0.0496327018737793	0.03901380157470703	1.0113099975585937
62	2.066666666666667	-0.0143548002243042	-0.04846229934692383	0.9377540283203125	-0.015422200202941895	-0.029064199447631837	0.9555449829101562	-0.024528699874877928	-0.01585599994659424	0.9802960205078125	-0.027798200607299806	0.013284500122070313	0.99806298828125	0.012311100006103515	-0.005139679908752442	0.8734619750976562	-0.004104440212249756	-0.003895800113677978	0.8879450073242188	-0.01865250015258789	-0.002374530076980591	0.9051420288085937	-0.030186899185180666	0.0021082899570465086	0.9394240112304687	0.014740900039672851	0.029292600631713867	0.8566179809570312	0.000281199991703033	0.028440799713134766	0.875531005859375	-0.01611400032043457	0.027010000228881836	0.8983930053710938	-0.03100749969482422	0.025583900451660157	0.9352020263671875	0.023000699996948242	0.04478200149536133	0.8741790161132813	0.007160510063171387	0.04651430130004883	0.8890579833984374	-0.010002599716186524	0.04744240188598633	0.9079739990234375	-0.024778099060058595	0.04480960083007812	0.939510986328125	0.03301129913330078	0.07286799621582031	0.9165079956054687	0.01653809928894043	0.07121810150146485	0.9249010009765625	0.0013940700292587281	0.06838269805908204	0.93352001953125	-0.017617200851440428	0.06134700012207031	0.949947998046875	-0.0493114013671875	0.03906470108032226	1.0108499755859375
63	2.1	-0.015388099670410157	-0.04849649810791016	0.937156005859375	-0.016034599304199218	-0.029118600845336913	0.954906982421875	-0.024851999282836913	-0.015979299545288084	0.9797750244140625	-0.027774499893188476	0.013115300178527831	0.9976840209960938	0.01204129981994629	-0.00529458999633789	0.8731170043945312	-0.004359149932861328	-0.003994019985198974	0.8875369873046876	-0.018967199325561523	-0.002416660070419311	0.9047429809570312	-0.030469999313354493	0.002041539907455444	0.9390599975585937	0.014675200462341309	0.029089000701904295	0.8563900146484374	0.000135784998536109	0.028336999893188476	0.8752219848632813	-0.01638279914855957	0.026939800262451172	0.898052978515625	-0.03114609909057617	0.025555299758911132	0.9349169921875	0.022971099853515625	0.044673099517822265	0.8739849853515625	0.00707105016708374	0.04648419952392578	0.8888189697265625	-0.010242600440979004	0.04742340087890625	0.907572998046875	-0.024877500534057618	0.04476639938354492	0.9391909790039062	0.03329380035400391	0.07272270202636719	0.9166420288085938	0.01677549934387207	0.07110389709472656	0.9248660278320312	0.001596410036087036	0.06828359985351562	0.9333779907226563	-0.01762579917907715	0.061222301483154294	0.9497039794921875	-0.04923920059204102	0.03899959945678711	1.0105900268554688
